<?xml version="1.0" encoding="utf-8"?>
<svg width="626" height="1024" viewBox="0 0 626 1024" fill="none" xmlns="http://www.w3.org/2000/svg">
  <rect width="626" height="1024" fill="#111927"/>
  <g opacity="0.28">
    <path d="M207.092 913.94L355.577 907.264L344.898 889.201L207.092 913.94Z" fill="url(#paint0_linear_48_5906)"/>
    <path d="M355.577 907.264L394.404 792.863L344.898 889.201L355.577 907.264Z" fill="url(#paint1_linear_48_5906)"/>
    <path d="M207.093 913.941L303.138 1012.2L355.577 907.264L207.093 913.941Z" fill="url(#paint2_linear_48_5906)"/>
    <path d="M293.678 1024L309.137 1024L303.138 1012.2L293.678 1024Z" fill="url(#paint3_linear_48_5906)"/>
    <path d="M608.875 439.992L625.388 271.196L507.919 377.078L608.875 439.992Z" fill="url(#paint4_linear_48_5906)"/>
    <path d="M625.388 271.196L553.535 262.636L505.018 337.961L625.388 271.196Z" fill="url(#paint5_linear_48_5906)"/>
    <path d="M507.919 377.078L625.388 271.196L505.018 337.961L507.919 377.078Z" fill="url(#paint6_linear_48_5906)"/>
    <path d="M322.552 705.126L450.667 586.875L300.238 628.859L322.552 705.126Z" fill="url(#paint7_linear_48_5906)"/>
    <path d="M275.188 -0.000173569L247.172 -0.000176612L265.3 26.1323L275.188 -0.000173569Z" fill="url(#paint8_linear_48_5906)"/>
    <path d="M432.209 64.2661L404.292 -0.000132733L275.188 -0.000146759L265.3 26.1323L432.209 64.2661Z" fill="url(#paint9_linear_48_5906)"/>
    <path d="M338.108 216.842L265.3 26.1323L287.614 218.767L338.108 216.842Z" fill="url(#paint10_linear_48_5906)"/>
    <path d="M309.136 1024L311.542 1024L303.138 1012.2L309.136 1024Z" fill="url(#paint11_linear_48_5906)"/>
    <path d="M432.209 64.2663L265.3 26.1325L391.471 190.177L432.209 64.2663Z" fill="url(#paint12_linear_48_5906)"/>
    <path d="M391.47 190.177L265.299 26.1325L338.108 216.842L391.47 190.177Z" fill="url(#paint13_linear_48_5906)"/>
    <path d="M553.534 262.636L453.6 120.504L391.47 190.177L553.534 262.636Z" fill="url(#paint14_linear_48_5906)"/>
    <path d="M205.148 984.556L303.138 1012.2L207.092 913.941L205.148 984.556Z" fill="url(#paint15_linear_48_5906)"/>
    <path d="M1.09746 944L-5.00012 944L196.32 674.729L1.09746 944Z" fill="white"/>
    <path d="M565.301 1024L610.094 1024L604.985 1015.07L565.301 1024Z" fill="url(#paint16_linear_48_5906)"/>
    <path d="M42.6218 -1.81198e-05L35.4036 -1.8904e-05L38.2052 8.97021L42.6218 -1.81198e-05Z" fill="white"/>
    <path d="M-59.8442 693.173L63.4261 818.06L60.4928 690.305L-59.8442 693.173Z" fill="url(#paint17_linear_48_5906)"/>
    <path d="M391.471 190.177L338.109 216.842L408.94 285.532L391.471 190.177Z" fill="url(#paint18_linear_48_5906)"/>
    <path d="M408.939 285.532L553.534 262.636L391.47 190.177L408.939 285.532Z" fill="url(#paint19_linear_48_5906)"/>
    <path d="M338.109 216.842L287.614 218.767L408.94 285.532L338.109 216.842Z" fill="url(#paint20_linear_48_5906)"/>
    <path d="M408.94 285.532L287.614 218.767L330.33 456.212L408.94 285.532Z" fill="url(#paint21_linear_48_5906)"/>
    <path d="M505.017 337.961L553.534 262.636L408.939 285.532L505.017 337.961Z" fill="url(#paint22_linear_48_5906)"/>
    <path d="M505.018 337.961L408.94 285.532L507.919 377.078L505.018 337.961Z" fill="url(#paint23_linear_48_5906)"/>
    <path d="M236.196 743.26L220.639 769.024L276.935 799.539L236.196 743.26Z" fill="url(#paint24_linear_48_5906)"/>
    <path d="M344.898 889.201L394.404 792.863L276.935 799.539L344.898 889.201Z" fill="url(#paint25_linear_48_5906)"/>
    <path d="M276.935 799.539L207.093 913.94L344.898 889.201L276.935 799.539Z" fill="url(#paint26_linear_48_5906)"/>
    <path d="M610.094 1024L626.08 1024L626.08 1003.89L604.985 1015.07L610.094 1024Z" fill="url(#paint27_linear_48_5906)"/>
    <path d="M523.475 476.242L608.875 439.992L507.918 377.078L523.475 476.242Z" fill="url(#paint28_linear_48_5906)"/>
    <path d="M450.667 586.875L523.475 476.242L463.29 527.77L450.667 586.875Z" fill="url(#paint29_linear_48_5906)"/>
    <path d="M355.577 907.264L546.745 875.848L394.404 792.863L355.577 907.264Z" fill="url(#paint30_linear_48_5906)"/>
    <path d="M546.745 875.848L450.667 586.875L394.404 792.863L546.745 875.848Z" fill="url(#paint31_linear_48_5906)"/>
    <path d="M507.919 377.078L408.94 285.532L366.224 462.889L507.919 377.078Z" fill="url(#paint32_linear_48_5906)"/>
    <path d="M366.224 462.889L408.94 285.532L330.33 456.212L366.224 462.889Z" fill="url(#paint33_linear_48_5906)"/>
    <path d="M366.223 462.889L523.475 476.242L507.918 377.078L366.223 462.889Z" fill="url(#paint34_linear_48_5906)"/>
    <path d="M300.237 628.859L366.223 462.889L330.329 456.212L300.237 628.859Z" fill="url(#paint35_linear_48_5906)"/>
    <path d="M463.29 527.77L523.475 476.242L366.223 462.889L463.29 527.77Z" fill="url(#paint36_linear_48_5906)"/>
    <path d="M366.223 462.889L450.667 586.875L463.29 527.77L366.223 462.889Z" fill="url(#paint37_linear_48_5906)"/>
    <path d="M446.81 1012.2L546.745 875.848L355.577 907.264L446.81 1012.2Z" fill="url(#paint38_linear_48_5906)"/>
    <path d="M303.138 1012.2L446.811 1012.2L355.578 907.264L303.138 1012.2Z" fill="url(#paint39_linear_48_5906)"/>
    <path d="M303.138 1012.2L311.542 1024L444.009 1024L446.81 1012.2L303.138 1012.2Z" fill="url(#paint40_linear_48_5906)"/>
    <path d="M444.009 1024L518.861 1024L446.811 1012.2L444.009 1024Z" fill="url(#paint41_linear_48_5906)"/>
    <path d="M205.148 984.556L188.536 1024L286.954 1024L303.138 1012.2L205.148 984.556Z" fill="url(#paint42_linear_48_5906)"/>
    <path d="M286.954 1024L293.678 1024L303.138 1012.2L286.954 1024Z" fill="url(#paint43_linear_48_5906)"/>
    <path d="M553.535 262.636L626.08 224.133L626.08 199.844L453.6 120.504L553.535 262.636Z" fill="url(#paint44_linear_48_5906)"/>
    <path d="M625.388 271.196L626.08 269.517L626.08 224.133L553.535 262.636L625.388 271.196Z" fill="url(#paint45_linear_48_5906)"/>
    <path d="M236.196 743.26L322.552 705.127L250.732 708.977L236.196 743.26Z" fill="url(#paint46_linear_48_5906)"/>
    <path d="M626.08 927.129L626.08 835.584L546.745 875.847L626.08 927.129Z" fill="url(#paint47_linear_48_5906)"/>
    <path d="M523.475 476.242L626.08 718.111L626.08 550.789L608.875 439.992L523.475 476.242Z" fill="url(#paint48_linear_48_5906)"/>
    <path d="M450.667 586.875L626.08 771.604L626.08 718.111L523.475 476.242L450.667 586.875Z" fill="url(#paint49_linear_48_5906)"/>
    <path d="M546.745 875.848L626.08 835.584L626.08 771.604L450.667 586.875L546.745 875.848Z" fill="url(#paint50_linear_48_5906)"/>
    <path d="M626.08 271.729L626.08 269.517L625.388 271.196L626.08 271.729Z" fill="url(#paint51_linear_48_5906)"/>
    <path d="M608.875 439.992L626.08 414.843L626.08 271.729L625.388 271.196L608.875 439.992Z" fill="url(#paint52_linear_48_5906)"/>
    <path d="M626.08 550.789L626.08 414.843L608.875 439.992L626.08 550.789Z" fill="url(#paint53_linear_48_5906)"/>
    <path d="M626.08 199.844L626.08 89.7842L453.6 120.504L626.08 199.844Z" fill="url(#paint54_linear_48_5906)"/>
    <path d="M626.08 2.28882e-05L613.819 2.15561e-05L626.08 16.9165L626.08 2.28882e-05Z" fill="url(#paint55_linear_48_5906)"/>
    <path d="M504.985 -0.0001297L404.292 -0.000140639L432.209 64.2661L504.985 -0.0001297Z" fill="url(#paint56_linear_48_5906)"/>
    <path d="M626.08 16.9165L613.819 2.53708e-05L515.532 1.46928e-05L626.08 57.1802L626.08 16.9165Z" fill="url(#paint57_linear_48_5906)"/>
    <path d="M626.08 89.7844L626.08 57.1803L515.532 0.000102431L507.358 0.000101543L453.6 120.504L626.08 89.7844Z" fill="url(#paint58_linear_48_5906)"/>
    <path d="M138.173 1000.78L205.148 984.555L207.093 913.94L138.173 1000.78Z" fill="white"/>
    <path d="M138.173 1000.78L139.392 1024L188.536 1024L205.147 984.556L138.173 1000.78Z" fill="url(#paint59_linear_48_5906)"/>
    <path d="M88.9964 1024L114.507 1024L138.173 1000.78L88.9964 1024Z" fill="white"/>
    <path d="M162.464 461.906L50.8288 502.948L143.018 579.256L162.464 461.906Z" fill="white"/>
    <path d="M26.5373 621.117L69.2534 760.299L128.45 615.342L26.5373 621.117Z" fill="url(#paint60_linear_48_5906)"/>
    <path d="M252.676 617.349L143.018 579.256L250.732 708.977L252.676 617.349Z" fill="url(#paint61_linear_48_5906)"/>
    <path d="M-51.0832 437.166L-77.2864 485.744L2.27905 503.931L-51.0832 437.166Z" fill="white"/>
    <path d="M-51.0835 437.166L2.27874 503.931L50.8289 502.948L-51.0835 437.166Z" fill="url(#paint62_linear_48_5906)"/>
    <path d="M50.8289 502.948L2.27873 503.931L41.1057 584.95L50.8289 502.948Z" fill="url(#paint63_linear_48_5906)"/>
    <path d="M2.27906 503.931L-84.1091 537.272L-62.7181 598.303L2.27906 503.931Z" fill="url(#paint64_linear_48_5906)"/>
    <path d="M41.1062 584.95L2.27929 503.931L-9.35556 616.448L41.1062 584.95Z" fill="url(#paint65_linear_48_5906)"/>
    <path d="M2.27906 503.931L-62.7181 598.303L-9.35578 616.448L2.27906 503.931Z" fill="white"/>
    <path d="M445.822 89.0879L506.567 -6.86646e-05L504.985 -6.88364e-05L432.209 64.2662L445.822 89.0879Z" fill="url(#paint66_linear_48_5906)"/>
    <path d="M453.6 120.504L507.358 0.000114441L506.567 0.000114355L445.822 89.0881L453.6 120.504Z" fill="url(#paint67_linear_48_5906)"/>
    <path d="M445.822 89.088L432.209 64.2662L391.47 190.177L445.822 89.088Z" fill="url(#paint68_linear_48_5906)"/>
    <path d="M453.6 120.504L445.821 89.088L391.47 190.177L453.6 120.504Z" fill="url(#paint69_linear_48_5906)"/>
    <path d="M564.214 962.601L626.08 965.837L626.08 927.13L546.745 875.848L564.214 962.601Z" fill="url(#paint70_linear_48_5906)"/>
    <path d="M564.214 962.601L546.745 875.848L446.811 1012.2L564.214 962.601Z" fill="url(#paint71_linear_48_5906)"/>
    <path d="M604.985 1015.07L626.08 1003.89L626.08 965.837L564.214 962.601L604.985 1015.07Z" fill="url(#paint72_linear_48_5906)"/>
    <path d="M446.811 1012.2L518.861 1024L547.042 1024L564.214 962.601L446.811 1012.2Z" fill="url(#paint73_linear_48_5906)"/>
    <path d="M564.214 962.601L547.042 1024L565.302 1024L604.986 1015.07L564.214 962.601Z" fill="url(#paint74_linear_48_5906)"/>
    <path d="M220.639 769.024L136.228 892.969L207.092 913.94L220.639 769.024Z" fill="url(#paint75_linear_48_5906)"/>
    <path d="M86.7559 852.009L41.8974 1024L51.6536 1024L136.229 892.969L86.7559 852.009Z" fill="white"/>
    <path d="M61.9039 892.969L63.8156 1000.78L132.768 913.94L61.9039 892.969Z" fill="url(#paint76_linear_48_5906)"/>
    <path d="M136.228 892.969L51.6528 1024L88.9964 1024L138.173 1000.78L136.228 892.969Z" fill="white"/>
    <path d="M-10.2786 35.0209L-20.0018 296.346L40.2161 238.183L-10.2786 35.0209Z" fill="url(#paint77_linear_48_5906)"/>
    <path d="M287.613 218.767L265.299 26.1323L88.6666 212.091L287.613 218.767Z" fill="url(#paint78_linear_48_5906)"/>
    <path d="M88.6668 212.091L28.4818 270.254L162.464 461.906L88.6668 212.091Z" fill="white"/>
    <path d="M168.661 11.182L51.653 110.182L57.1244 141.599L168.661 11.182Z" fill="url(#paint79_linear_48_5906)"/>
  </g>
  <defs>
    <linearGradient id="paint0_linear_48_5906" x1="368.388" y1="892.244" x2="357.107" y2="945.665" gradientUnits="userSpaceOnUse">
      <stop stop-color="#B2B2B2"/>
      <stop offset="1" stop-color="#A7A7A7"/>
    </linearGradient>
    <linearGradient id="paint1_linear_48_5906" x1="390.324" y1="781.009" x2="310.261" y2="808.39" gradientUnits="userSpaceOnUse">
      <stop stop-color="#B6B6B6"/>
      <stop offset="1" stop-color="#BCBCBC"/>
    </linearGradient>
    <linearGradient id="paint2_linear_48_5906" x1="336.619" y1="890.184" x2="225.138" y2="1014.96" gradientUnits="userSpaceOnUse">
      <stop stop-color="#959595"/>
      <stop offset="1" stop-color="#8D8D8D"/>
    </linearGradient>
    <linearGradient id="paint3_linear_48_5906" x1="343.296" y1="980.984" x2="164.01" y2="1163.08" gradientUnits="userSpaceOnUse">
      <stop stop-color="#535353"/>
      <stop offset="1" stop-color="#323232"/>
    </linearGradient>
    <linearGradient id="paint4_linear_48_5906" x1="629.508" y1="278.655" x2="463.85" y2="370.121" gradientUnits="userSpaceOnUse">
      <stop stop-color="#252525"/>
      <stop offset="1" stop-color="#141414"/>
    </linearGradient>
    <linearGradient id="paint5_linear_48_5906" x1="610.869" y1="249.782" x2="527.478" y2="355.508" gradientUnits="userSpaceOnUse">
      <stop stop-color="#1C1C1C"/>
      <stop offset="1" stop-color="#191919"/>
    </linearGradient>
    <linearGradient id="paint6_linear_48_5906" x1="610.444" y1="254.357" x2="491.141" y2="361.196" gradientUnits="userSpaceOnUse">
      <stop stop-color="#141414"/>
      <stop offset="1" stop-color="#2A2A2A"/>
    </linearGradient>
    <linearGradient id="paint7_linear_48_5906" x1="423.604" y1="559.927" x2="291.043" y2="693.265" gradientUnits="userSpaceOnUse">
      <stop stop-color="#F8F8F8"/>
      <stop offset="1" stop-color="#F2F2F2"/>
    </linearGradient>
    <linearGradient id="paint8_linear_48_5906" x1="372.555" y1="-127.365" x2="164.143" y2="45.1789" gradientUnits="userSpaceOnUse">
      <stop stop-color="#848484"/>
      <stop offset="1" stop-color="#767676"/>
    </linearGradient>
    <linearGradient id="paint9_linear_48_5906" x1="442.717" y1="-118.604" x2="229.366" y2="7.58879" gradientUnits="userSpaceOnUse">
      <stop stop-color="#606060"/>
      <stop offset="1" stop-color="#888888"/>
    </linearGradient>
    <linearGradient id="paint10_linear_48_5906" x1="341.599" y1="-11.9318" x2="208.536" y2="27.6882" gradientUnits="userSpaceOnUse">
      <stop stop-color="#BABABA"/>
      <stop offset="1" stop-color="#BCBCBC"/>
    </linearGradient>
    <linearGradient id="paint11_linear_48_5906" x1="368.731" y1="900.653" x2="207.769" y2="984.73" gradientUnits="userSpaceOnUse">
      <stop stop-color="#4C4C4C"/>
      <stop offset="1" stop-color="#2F2F2F"/>
    </linearGradient>
    <linearGradient id="paint12_linear_48_5906" x1="414.22" y1="1.40907" x2="243.546" y2="138.748" gradientUnits="userSpaceOnUse">
      <stop stop-color="#999999"/>
      <stop offset="1" stop-color="#898989"/>
    </linearGradient>
    <linearGradient id="paint13_linear_48_5906" x1="389.578" y1="-9.21184" x2="201.846" y2="88.981" gradientUnits="userSpaceOnUse">
      <stop stop-color="#A4A4A4"/>
      <stop offset="1" stop-color="#A3A3A3"/>
    </linearGradient>
    <linearGradient id="paint14_linear_48_5906" x1="554.777" y1="135.275" x2="396.94" y2="277.627" gradientUnits="userSpaceOnUse">
      <stop stop-color="#575757"/>
      <stop offset="1" stop-color="#444444"/>
    </linearGradient>
    <linearGradient id="paint15_linear_48_5906" x1="310.227" y1="893.407" x2="183.028" y2="993.775" gradientUnits="userSpaceOnUse">
      <stop stop-color="#9B9B9B"/>
      <stop offset="1" stop-color="#818181"/>
    </linearGradient>
    <linearGradient id="paint16_linear_48_5906" x1="636.485" y1="963.805" x2="478.654" y2="1090.36" gradientUnits="userSpaceOnUse">
      <stop stop-color="#2F2F2F"/>
      <stop offset="1" stop-color="#2F2F2F"/>
    </linearGradient>
    <linearGradient id="paint17_linear_48_5906" x1="57.523" y1="682.494" x2="-97.5662" y2="800.773" gradientUnits="userSpaceOnUse">
      <stop stop-color="#8D8D8D"/>
      <stop offset="1" stop-color="#ABABAB"/>
    </linearGradient>
    <linearGradient id="paint18_linear_48_5906" x1="408.65" y1="191.181" x2="309.191" y2="249.605" gradientUnits="userSpaceOnUse">
      <stop stop-color="#8F8F8F"/>
      <stop offset="1" stop-color="#969696"/>
    </linearGradient>
    <linearGradient id="paint19_linear_48_5906" x1="547.621" y1="170.639" x2="437.373" y2="318.794" gradientUnits="userSpaceOnUse">
      <stop stop-color="#737373"/>
      <stop offset="1" stop-color="#424242"/>
    </linearGradient>
    <linearGradient id="paint20_linear_48_5906" x1="402.763" y1="213.275" x2="321.436" y2="326.5" gradientUnits="userSpaceOnUse">
      <stop stop-color="#B4B4B4"/>
      <stop offset="1" stop-color="#B2B2B2"/>
    </linearGradient>
    <linearGradient id="paint21_linear_48_5906" x1="387.107" y1="156.422" x2="201.506" y2="231.397" gradientUnits="userSpaceOnUse">
      <stop stop-color="#D9D9D9"/>
      <stop offset="1" stop-color="#CDCDCD"/>
    </linearGradient>
    <linearGradient id="paint22_linear_48_5906" x1="542.625" y1="255.283" x2="461.156" y2="378.928" gradientUnits="userSpaceOnUse">
      <stop stop-color="#242424"/>
      <stop offset="1" stop-color="#494949"/>
    </linearGradient>
    <linearGradient id="paint23_linear_48_5906" x1="517.629" y1="261.915" x2="368.796" y2="389.495" gradientUnits="userSpaceOnUse">
      <stop stop-color="#393939"/>
      <stop offset="1" stop-color="#525252"/>
    </linearGradient>
    <linearGradient id="paint24_linear_48_5906" x1="275.231" y1="747.946" x2="214.845" y2="795.528" gradientUnits="userSpaceOnUse">
      <stop stop-color="#EAEAEA"/>
      <stop offset="1" stop-color="#E9E9E9"/>
    </linearGradient>
    <linearGradient id="paint25_linear_48_5906" x1="377.288" y1="775.369" x2="273.52" y2="875.404" gradientUnits="userSpaceOnUse">
      <stop stop-color="#DEDEDE"/>
      <stop offset="1" stop-color="#DBDBDB"/>
    </linearGradient>
    <linearGradient id="paint26_linear_48_5906" x1="344.717" y1="808.882" x2="220.02" y2="927.62" gradientUnits="userSpaceOnUse">
      <stop stop-color="#C3C3C3"/>
      <stop offset="1" stop-color="#D2D2D2"/>
    </linearGradient>
    <linearGradient id="paint27_linear_48_5906" x1="662.975" y1="895.623" x2="518.692" y2="950.881" gradientUnits="userSpaceOnUse">
      <stop stop-color="#2F2F2F"/>
      <stop offset="1" stop-color="#2F2F2F"/>
    </linearGradient>
    <linearGradient id="paint28_linear_48_5906" x1="600.846" y1="355.582" x2="485.996" y2="448" gradientUnits="userSpaceOnUse">
      <stop stop-color="#2C2C2C"/>
      <stop offset="1" stop-color="#282828"/>
    </linearGradient>
    <linearGradient id="paint29_linear_48_5906" x1="515.051" y1="460.112" x2="412.499" y2="513.67" gradientUnits="userSpaceOnUse">
      <stop stop-color="#898989"/>
      <stop offset="1" stop-color="#787878"/>
    </linearGradient>
    <linearGradient id="paint30_linear_48_5906" x1="547.137" y1="776.278" x2="414.205" y2="951.885" gradientUnits="userSpaceOnUse">
      <stop stop-color="#B2B2B2"/>
      <stop offset="1" stop-color="#767676"/>
    </linearGradient>
    <linearGradient id="paint31_linear_48_5906" x1="545.891" y1="617.943" x2="322.829" y2="710.949" gradientUnits="userSpaceOnUse">
      <stop stop-color="#A4A4A4"/>
      <stop offset="1" stop-color="#8A8A8A"/>
    </linearGradient>
    <linearGradient id="paint32_linear_48_5906" x1="502.846" y1="261.128" x2="314.345" y2="380.192" gradientUnits="userSpaceOnUse">
      <stop stop-color="#898989"/>
      <stop offset="1" stop-color="#8A8A8A"/>
    </linearGradient>
    <linearGradient id="paint33_linear_48_5906" x1="409.128" y1="286.269" x2="283.581" y2="330.264" gradientUnits="userSpaceOnUse">
      <stop stop-color="#AFAFAF"/>
      <stop offset="1" stop-color="#E3E3E3"/>
    </linearGradient>
    <linearGradient id="paint34_linear_48_5906" x1="541.218" y1="392.642" x2="431.568" y2="530.084" gradientUnits="userSpaceOnUse">
      <stop stop-color="#4E4E4E"/>
      <stop offset="1" stop-color="#878787"/>
    </linearGradient>
    <linearGradient id="paint35_linear_48_5906" x1="357.821" y1="427.631" x2="249.392" y2="460.41" gradientUnits="userSpaceOnUse">
      <stop stop-color="#EDEDED"/>
      <stop offset="1" stop-color="#EDEDED"/>
    </linearGradient>
    <linearGradient id="paint36_linear_48_5906" x1="501.171" y1="450.208" x2="443.38" y2="560.997" gradientUnits="userSpaceOnUse">
      <stop stop-color="#646464"/>
      <stop offset="1" stop-color="#ACACAC"/>
    </linearGradient>
    <linearGradient id="paint37_linear_48_5906" x1="459.22" y1="442.442" x2="323.655" y2="526.651" gradientUnits="userSpaceOnUse">
      <stop stop-color="#A4A4A4"/>
      <stop offset="1" stop-color="#C3C3C3"/>
    </linearGradient>
    <linearGradient id="paint38_linear_48_5906" x1="520.515" y1="852.177" x2="372.527" y2="1016.23" gradientUnits="userSpaceOnUse">
      <stop stop-color="#3D3D3D"/>
      <stop offset="1" stop-color="#575757"/>
    </linearGradient>
    <linearGradient id="paint39_linear_48_5906" x1="445.456" y1="919.02" x2="333.135" y2="1040.14" gradientUnits="userSpaceOnUse">
      <stop stop-color="#818181"/>
      <stop offset="1" stop-color="#484848"/>
    </linearGradient>
    <linearGradient id="paint40_linear_48_5906" x1="412.285" y1="966.517" x2="259.164" y2="1081.21" gradientUnits="userSpaceOnUse">
      <stop stop-color="#484848"/>
      <stop offset="1" stop-color="#2F2F2F"/>
    </linearGradient>
    <linearGradient id="paint41_linear_48_5906" x1="517.368" y1="969.122" x2="354.322" y2="1083.82" gradientUnits="userSpaceOnUse">
      <stop stop-color="#303030"/>
      <stop offset="1" stop-color="#2F2F2F"/>
    </linearGradient>
    <linearGradient id="paint42_linear_48_5906" x1="286.252" y1="961.819" x2="123.755" y2="1103.38" gradientUnits="userSpaceOnUse">
      <stop stop-color="#777777"/>
      <stop offset="1" stop-color="#494949"/>
    </linearGradient>
    <linearGradient id="paint43_linear_48_5906" x1="301.295" y1="1010.24" x2="130.105" y2="1146.32" gradientUnits="userSpaceOnUse">
      <stop stop-color="#515151"/>
      <stop offset="1" stop-color="#282828"/>
    </linearGradient>
    <linearGradient id="paint44_linear_48_5906" x1="631.054" y1="88.654" x2="468.237" y2="267.819" gradientUnits="userSpaceOnUse">
      <stop stop-color="#333333"/>
      <stop offset="1" stop-color="#101010"/>
    </linearGradient>
    <linearGradient id="paint45_linear_48_5906" x1="655.661" y1="215.122" x2="589.026" y2="300.234" gradientUnits="userSpaceOnUse">
      <stop stop-color="#121212"/>
      <stop offset="1" stop-color="#070707"/>
    </linearGradient>
    <linearGradient id="paint46_linear_48_5906" x1="306.339" y1="696.078" x2="269.511" y2="762.017" gradientUnits="userSpaceOnUse">
      <stop stop-color="#F7F7F7"/>
      <stop offset="1" stop-color="#EEEEEE"/>
    </linearGradient>
    <linearGradient id="paint47_linear_48_5906" x1="669.92" y1="788.476" x2="496.041" y2="917.166" gradientUnits="userSpaceOnUse">
      <stop stop-color="#323232"/>
      <stop offset="1" stop-color="#2A2A2A"/>
    </linearGradient>
    <linearGradient id="paint48_linear_48_5906" x1="643.644" y1="369.955" x2="388.086" y2="447.399" gradientUnits="userSpaceOnUse">
      <stop stop-color="#1E1E1E"/>
      <stop offset="1" stop-color="#282828"/>
    </linearGradient>
    <linearGradient id="paint49_linear_48_5906" x1="646.835" y1="464.79" x2="337.73" y2="621.036" gradientUnits="userSpaceOnUse">
      <stop stop-color="#3D3D3D"/>
      <stop offset="1" stop-color="#434343"/>
    </linearGradient>
    <linearGradient id="paint50_linear_48_5906" x1="652.715" y1="518.656" x2="350.688" y2="696.881" gradientUnits="userSpaceOnUse">
      <stop stop-color="#777777"/>
      <stop offset="1" stop-color="#303030"/>
    </linearGradient>
    <linearGradient id="paint51_linear_48_5906" x1="670.51" y1="180.771" x2="577.914" y2="226.856" gradientUnits="userSpaceOnUse">
      <stop stop-color="#010101"/>
      <stop offset="1" stop-color="#020202"/>
    </linearGradient>
    <linearGradient id="paint52_linear_48_5906" x1="674.557" y1="218.481" x2="542.64" y2="269.866" gradientUnits="userSpaceOnUse">
      <stop stop-color="#080808"/>
      <stop offset="1" stop-color="#0A0A0A"/>
    </linearGradient>
    <linearGradient id="paint53_linear_48_5906" x1="666.772" y1="125.186" x2="516.36" y2="145.165" gradientUnits="userSpaceOnUse">
      <stop stop-color="#151515"/>
      <stop offset="1" stop-color="#101010"/>
    </linearGradient>
    <linearGradient id="paint54_linear_48_5906" x1="658.697" y1="71.2621" x2="509.082" y2="271.327" gradientUnits="userSpaceOnUse">
      <stop stop-color="#252525"/>
      <stop offset="1"/>
    </linearGradient>
    <linearGradient id="paint55_linear_48_5906" x1="705.537" y1="-281.702" x2="447.911" y2="-205.732" gradientUnits="userSpaceOnUse">
      <stop/>
      <stop offset="1"/>
    </linearGradient>
    <linearGradient id="paint56_linear_48_5906" x1="538.107" y1="-135.553" x2="307.915" y2="6.1413" gradientUnits="userSpaceOnUse">
      <stop stop-color="#4D4D4D"/>
      <stop offset="1" stop-color="#4E4E4E"/>
    </linearGradient>
    <linearGradient id="paint57_linear_48_5906" x1="655.279" y1="-51.1672" x2="512.786" y2="98.493" gradientUnits="userSpaceOnUse">
      <stop stop-color="#020202"/>
      <stop offset="1" stop-color="#070707"/>
    </linearGradient>
    <linearGradient id="paint58_linear_48_5906" x1="665.401" y1="-25.7391" x2="524.331" y2="171.607" gradientUnits="userSpaceOnUse">
      <stop stop-color="#010101"/>
      <stop offset="1" stop-color="#333333"/>
    </linearGradient>
    <linearGradient id="paint59_linear_48_5906" x1="190.048" y1="943.387" x2="85.2388" y2="982.183" gradientUnits="userSpaceOnUse">
      <stop stop-color="#6F6F6F"/>
      <stop offset="1" stop-color="#444444"/>
    </linearGradient>
    <linearGradient id="paint60_linear_48_5906" x1="109.152" y1="580.923" x2="-25.9355" y2="655.721" gradientUnits="userSpaceOnUse">
      <stop stop-color="#E9E9E9"/>
      <stop offset="1" stop-color="#E9E9E9"/>
    </linearGradient>
    <linearGradient id="paint61_linear_48_5906" x1="250.89" y1="563.605" x2="90.2794" y2="670.99" gradientUnits="userSpaceOnUse">
      <stop stop-color="#F6F6F6"/>
      <stop offset="1" stop-color="#F3F3F3"/>
    </linearGradient>
    <linearGradient id="paint62_linear_48_5906" x1="55.2818" y1="423.903" x2="-26.9276" y2="523.472" gradientUnits="userSpaceOnUse">
      <stop stop-color="#EDEDED"/>
      <stop offset="1" stop-color="#EFEFEF"/>
    </linearGradient>
    <linearGradient id="paint63_linear_48_5906" x1="45.8816" y1="492.405" x2="-21.0839" y2="523.861" gradientUnits="userSpaceOnUse">
      <stop stop-color="#F0F0F0"/>
      <stop offset="1" stop-color="#EBEBEB"/>
    </linearGradient>
    <linearGradient id="paint64_linear_48_5906" x1="-12.3848" y1="483.422" x2="-112.521" y2="555.861" gradientUnits="userSpaceOnUse">
      <stop stop-color="#C5C5C5"/>
      <stop offset="1" stop-color="#DBDBDB"/>
    </linearGradient>
    <linearGradient id="paint65_linear_48_5906" x1="41.6105" y1="488.358" x2="-43.9525" y2="518.699" gradientUnits="userSpaceOnUse">
      <stop stop-color="#E7E7E7"/>
      <stop offset="1" stop-color="#E3E3E3"/>
    </linearGradient>
    <linearGradient id="paint66_linear_48_5906" x1="500.743" y1="-15.9622" x2="405.88" y2="46.447" gradientUnits="userSpaceOnUse">
      <stop stop-color="#3D3D3D"/>
      <stop offset="1" stop-color="#676767"/>
    </linearGradient>
    <linearGradient id="paint67_linear_48_5906" x1="502.296" y1="-19.4231" x2="406.044" y2="19.3032" gradientUnits="userSpaceOnUse">
      <stop stop-color="#3A3A3A"/>
      <stop offset="1" stop-color="#616161"/>
    </linearGradient>
    <linearGradient id="paint68_linear_48_5906" x1="445.014" y1="58.7981" x2="356.738" y2="88.9339" gradientUnits="userSpaceOnUse">
      <stop stop-color="#797979"/>
      <stop offset="1" stop-color="#7F7F7F"/>
    </linearGradient>
    <linearGradient id="paint69_linear_48_5906" x1="453.669" y1="91.353" x2="364.585" y2="134.635" gradientUnits="userSpaceOnUse">
      <stop stop-color="#6F6F6F"/>
      <stop offset="1" stop-color="#7D7D7D"/>
    </linearGradient>
    <linearGradient id="paint70_linear_48_5906" x1="682.689" y1="842.171" x2="564.674" y2="986.555" gradientUnits="userSpaceOnUse">
      <stop stop-color="#343434"/>
      <stop offset="1" stop-color="#303030"/>
    </linearGradient>
    <linearGradient id="paint71_linear_48_5906" x1="571.834" y1="889.696" x2="429.596" y2="986.545" gradientUnits="userSpaceOnUse">
      <stop stop-color="#353535"/>
      <stop offset="1" stop-color="#333333"/>
    </linearGradient>
    <linearGradient id="paint72_linear_48_5906" x1="663.697" y1="947.401" x2="615.655" y2="1039.48" gradientUnits="userSpaceOnUse">
      <stop stop-color="#2F2F2F"/>
      <stop offset="1" stop-color="#303030"/>
    </linearGradient>
    <linearGradient id="paint73_linear_48_5906" x1="569.807" y1="966.558" x2="498.344" y2="1067.4" gradientUnits="userSpaceOnUse">
      <stop stop-color="#333333"/>
      <stop offset="1" stop-color="#323232"/>
    </linearGradient>
    <linearGradient id="paint74_linear_48_5906" x1="603.535" y1="962.175" x2="533.85" y2="1011.75" gradientUnits="userSpaceOnUse">
      <stop stop-color="#303030"/>
      <stop offset="1" stop-color="#323232"/>
    </linearGradient>
    <linearGradient id="paint75_linear_48_5906" x1="227.089" y1="783.331" x2="101.235" y2="841.297" gradientUnits="userSpaceOnUse">
      <stop stop-color="#EEEEEE"/>
      <stop offset="1" stop-color="#E2E2E2"/>
    </linearGradient>
    <linearGradient id="paint76_linear_48_5906" x1="118.681" y1="862.531" x2="17.5306" y2="915.113" gradientUnits="userSpaceOnUse">
      <stop stop-color="#9F9F9F"/>
      <stop offset="1" stop-color="#A8A8A8"/>
    </linearGradient>
    <linearGradient id="paint77_linear_48_5906" x1="40.905" y1="-5.75476" x2="-71.4422" y2="14.7017" gradientUnits="userSpaceOnUse">
      <stop stop-color="#B5B5B5"/>
      <stop offset="1" stop-color="#EDEDED"/>
    </linearGradient>
    <linearGradient id="paint78_linear_48_5906" x1="314.133" y1="61.149" x2="100.918" y2="235.269" gradientUnits="userSpaceOnUse">
      <stop stop-color="#B9B9B9"/>
      <stop offset="1" stop-color="#E2E2E2"/>
    </linearGradient>
    <linearGradient id="paint79_linear_48_5906" x1="76.5295" y1="153.097" x2="15.2168" y2="75.1712" gradientUnits="userSpaceOnUse">
      <stop stop-color="#E1E1E1"/>
      <stop offset="1" stop-color="#EAEAEA"/>
    </linearGradient>
  </defs>
</svg>